<?xml version="1.0" encoding="UTF-8"?><svg id="Layer_1" xmlns="http://www.w3.org/2000/svg" xmlns:xlink="http://www.w3.org/1999/xlink" viewBox="0 0 131.08 101.07"><defs><style>.cls-1{fill:none;stroke:#c4534a;stroke-miterlimit:10;}.cls-2,.cls-3{fill:#9d3b64;}.cls-4{fill:#c4534a;}.cls-5{fill:#60356c;}.cls-6{fill:url(#linear-gradient);}.cls-3{fill-rule:evenodd;}</style><linearGradient id="linear-gradient" x1="50.49" y1="11.33" x2="84.59" y2="70.39" gradientTransform="matrix(1, 0, 0, 1, 0, 0)" gradientUnits="userSpaceOnUse"><stop offset="0" stop-color="#9d3b64"/><stop offset=".46" stop-color="#cc7f29"/><stop offset=".99" stop-color="#69e16d"/></linearGradient></defs><rect id="shape04" class="cls-5" x="16.99" y="14.86" width="102.6" height="69.48" rx="15.15" ry="15.15"/><path id="shape21" class="cls-3" d="M7.94,67.14c10.59-7.13,19.72-11.03,27.38-11.7,17-1.49,42.82,8.08,64.26-7.14,8.54-6.07,11.21-14.45,8.91-19.73-1.32-3.02-10.8-9.2-24.44-1.34,10.54-4.63,19.04-.63,19.85,3.99,1.07,6.16-8.16,12.98-16.2,16.65-17.54,8.01-37.67,1.28-51.48,3.78-9.03,1.64-18.46,6.8-28.28,15.48Z"/><path id="shape0111" class="cls-3" d="M.99,76.58c13.34-7.13,27.2-11.56,39.19-11.78,21.48-.4,48.52,9.46,75.51-5.76,10.76-6.07,21.04-21.91,8.96-30.59,8.56,15.73-14.59,26.2-24.71,29.87-22.09,8.01-41.85,1.11-59.49,1.98-14.97,.74-27.09,7.59-39.46,16.28Z"/><rect id="shape4" class="cls-6" x="55.48" y="7.38" width="24.12" height="66.96" rx="2.52" ry="2.52"/><rect id="shape5" class="cls-2" x="52.33" y="72.99" width="30.67" height="20.7" rx="4.89" ry="4.89"/><circle id="shape0131" class="cls-4" cx="58.64" cy="79.27" r="2.58"/><ellipse id="shape6" class="cls-4" cx="30.03" cy="41.64" rx="2.77" ry="1.86"/><path id="shape7" class="cls-1" d="M31.84,42.5c-.02-6.12-.03-10.64-.03-13.57,.99,4.82,5.06,7.1,2.86,10.87"/><ellipse id="shape0141" class="cls-4" cx="108.86" cy="48.64" rx="3.3" ry="2.21"/><path id="shape111" class="cls-1" d="M111.02,49.67c-.03-7.28-.04-12.66-.04-16.14,1.18,5.73,6.02,8.45,3.4,12.93"/><ellipse id="shape0151" class="cls-4" cx="92.43" cy="63" rx="2.43" ry="1.63"/><path id="shape111-2" class="cls-1" d="M94.38,63.47c-.02-5.36-.12-9.13-.12-11.7"/></svg>