<?xml version="1.0" encoding="UTF-8"?><svg id="Layer_1" xmlns="http://www.w3.org/2000/svg" viewBox="0 0 131.08 101.07"><defs><style>.cls-1,.cls-2{fill:#69e16d;}.cls-3{fill:#9d3b64;}.cls-2,.cls-4,.cls-5{fill-rule:evenodd;}.cls-6,.cls-5{fill:#c4534a;}.cls-4{fill:#cc7f29;}.cls-7{fill:#60356c;}.cls-8{stroke-width:1.8px;}.cls-8,.cls-9{fill:none;stroke:#69e16d;stroke-linecap:square;stroke-linejoin:bevel;}.cls-9{stroke-width:2.52px;}</style></defs><rect id="shape022" class="cls-7" x="21.21" y="19.73" width="102.6" height="69.48" rx="12.22" ry="12.22"/><rect class="cls-3" x="59.73" y="36.65" width="46.23" height="40.02" rx="3" ry="3"/><path class="cls-5" d="M90.67,28.45H49.47c-1.02,0-1.39,1.35-.51,1.86l9.59,5.64c.77,.45,1.64,.69,2.54,.69h41.19c1.02,0,1.39-1.35,.51-1.86l-9.59-5.64c-.77-.45-1.64-.69-2.54-.69Z"/><path class="cls-4" d="M48.27,69.92l9.96,5.86c.67,.39,1.51-.09,1.51-.86V39.51c0-1.77-.94-3.41-2.46-4.31l-9.96-5.86c-.67-.39-1.51,.09-1.51,.86v35.41c0,1.77,.94,3.41,2.46,4.31Z"/><circle id="shape6" class="cls-1" cx="96.16" cy="32.3" r="3.37"/><path id="shape7" class="cls-9" d="M91.23,26.22c6.46-6.03,15.08-.77,13.41,7.06"/><path id="shape021" class="cls-9" d="M87.97,15.38c11.87-8.3,28.03-1.28,27.62,14.45"/><path id="shape022-2" class="cls-9" d="M90.2,20.87c9.84-7.29,20.74-1.27,19.98,10.67"/><path id="shape8" class="cls-8" d="M47.99,51.51c-1.63,7.05-4.87,10.83-9.72,11.34-7.65,.8-12.85-5.23-22.35,3.26"/><path id="shape023" class="cls-2" d="M12.13,75.1l-.83-1.13,2.43-2.46-2.99-3.27-2.68,2.24-.79-.99c2.94-3.29,5.09-5.13,6.43-5.52,.9-.26,2.54,.06,3.61,1.22,.9,.98,1.21,2.24,.68,4.03-.2,.69-2.16,2.64-5.86,5.88Z"/><rect id="shape5" class="cls-6" x="62.97" y="39.79" width="4.68" height="4.68"/><rect id="shape08" class="cls-6" x="70.48" y="39.81" width="4.68" height="4.68"/><rect id="shape09" class="cls-6" x="77.97" y="39.81" width="4.68" height="4.68"/><rect id="shape010" class="cls-6" x="85.54" y="39.85" width="4.68" height="4.68"/><rect id="shape011" class="cls-6" x="92.8" y="39.82" width="4.68" height="4.68"/><rect id="shape012" class="cls-6" x="99.76" y="39.79" width="4.68" height="4.68"/><rect id="shape013" class="cls-6" x="62.96" y="46.73" width="4.68" height="4.68"/><rect id="shape014" class="cls-1" x="70.55" y="46.75" width="4.68" height="4.68"/><rect id="shape014-2" class="cls-6" x="77.95" y="46.75" width="4.68" height="4.68"/><rect id="shape024" class="cls-6" x="85.52" y="46.79" width="4.68" height="4.68"/><rect id="shape032" class="cls-1" x="92.78" y="46.75" width="4.68" height="4.68"/><rect id="shape042" class="cls-6" x="99.75" y="46.72" width="4.68" height="4.68"/><rect id="shape015" class="cls-6" x="62.96" y="53.92" width="4.68" height="4.68"/><rect id="shape016" class="cls-6" x="70.46" y="53.94" width="4.68" height="4.68"/><rect id="shape015-2" class="cls-6" x="77.95" y="53.94" width="4.68" height="4.68"/><rect id="shape025" class="cls-6" x="85.52" y="53.98" width="4.68" height="4.68"/><rect id="shape033" class="cls-6" x="92.78" y="53.95" width="4.68" height="4.68"/><rect id="shape043" class="cls-6" x="99.75" y="53.92" width="4.68" height="4.68"/><rect id="shape017" class="cls-6" x="62.96" y="61.11" width="4.68" height="4.68"/><rect id="shape018" class="cls-1" x="70.46" y="61.13" width="4.68" height="4.68"/><rect id="shape016-2" class="cls-6" x="77.95" y="61.13" width="4.68" height="4.68"/><rect id="shape026" class="cls-6" x="85.52" y="61.17" width="4.68" height="4.68"/><rect id="shape034" class="cls-1" x="92.78" y="61.14" width="4.68" height="4.68"/><rect id="shape044" class="cls-6" x="99.75" y="61.11" width="4.68" height="4.68"/><rect id="shape019" class="cls-6" x="62.83" y="68.5" width="4.68" height="4.68"/><rect id="shape020" class="cls-6" x="70.33" y="68.52" width="4.68" height="4.68"/><rect id="shape017-2" class="cls-1" x="77.83" y="68.51" width="4.68" height="4.68"/><rect id="shape027" class="cls-1" x="85.4" y="68.56" width="4.68" height="4.68"/><rect id="shape035" class="cls-6" x="92.66" y="68.52" width="4.68" height="4.68"/><rect id="shape045" class="cls-6" x="99.62" y="68.49" width="4.68" height="4.68"/></svg>