<?xml version="1.0" encoding="UTF-8"?>
<svg id="Layer_2" data-name="Layer 2" xmlns="http://www.w3.org/2000/svg" viewBox="0 0 1000 1000">
  <path d="M445.56,502c-10.04,212.02-32.71,407.71-125.45,407.71-38.53,0-16.64-56.45-62.72-56.45-46.59,0-36.74,79.75,62.72,79.75,138.91,0,179.15-212.96,189.07-431h.02c10.04-212.02,32.71-407.71,125.45-407.71,38.53,0,16.64,56.45,62.72,56.45s36.74-79.75-62.72-79.75c-138.91,0-179.15,212.96-189.07,431h-.02Z"/>
  <path d="M705.81,821.32h-127.87v-26.91c9.77-7.07,19.56-14.58,29.37-22.53,9.81-7.95,17.67-14.8,23.57-20.56,8.82-8.53,15.09-15.97,18.81-22.31,3.72-6.34,5.58-12.62,5.58-18.81,0-7.44-2.39-13.18-7.17-17.23-4.78-4.05-11.65-6.07-20.62-6.07-6.71,0-13.76,1.39-21.17,4.16-7.4,2.77-14.27,6.31-20.62,10.61h-3.5v-36.21c5.18-2.26,12.82-4.52,22.92-6.78,10.1-2.26,20.22-3.39,30.35-3.39,20.42,0,35.99,4.29,46.71,12.85,10.72,8.57,16.08,20.69,16.08,36.37,0,10.28-2.57,20.05-7.71,29.31-5.14,9.26-13,18.81-23.57,28.66-6.64,6.12-13.31,11.76-20.02,16.9-6.71,5.14-11.48,8.73-14.33,10.77h73.18v31.17Z"/>
  <path d="M445.56,502c-10.04,212.02-32.71,407.71-125.45,407.71-38.53,0-16.64-56.45-62.72-56.45-46.59,0-36.74,79.75,62.72,79.75,138.91,0,179.15-212.96,189.07-431h.02c10.04-212.02,32.71-407.71,125.45-407.71,38.53,0,16.64,56.45,62.72,56.45s36.74-79.75-62.72-79.75c-138.91,0-179.15,212.96-189.07,431h-.02Z"/>
</svg>