<?xml version="1.0" encoding="UTF-8"?>
<svg id="Layer_2_copy_2" data-name="Layer 2 copy 2" xmlns="http://www.w3.org/2000/svg" viewBox="0 0 1000 1000">
  <path d="M445.56,502c-10.04,212.02-32.71,407.71-125.45,407.71-38.53,0-16.64-56.45-62.72-56.45-46.59,0-36.74,79.75,62.72,79.75,138.91,0,179.15-212.96,189.07-431h.02c10.04-212.02,32.71-407.71,125.45-407.71,38.53,0,16.64,56.45,62.72,56.45s36.74-79.75-62.72-79.75c-138.91,0-179.15,212.96-189.07,431h-.02Z"/>
  <path d="M689.84,744.97c3.57,3.06,6.42,6.64,8.53,10.72,2.11,4.08,3.17,9.52,3.17,16.3,0,7.66-1.51,14.8-4.54,21.44-3.03,6.64-7.68,12.32-13.95,17.06-6.12,4.59-13.33,8.11-21.6,10.56-8.28,2.44-18.32,3.66-30.13,3.66-13.49,0-25.07-1.06-34.73-3.17-9.66-2.11-17.52-4.48-23.57-7.11v-35.77h4.27c6.27,3.79,13.76,7.07,22.48,9.84,8.71,2.77,16.68,4.16,23.9,4.16,4.23,0,8.82-.34,13.78-1.04,4.96-.69,9.15-2.2,12.58-4.54,2.7-1.82,4.85-4.03,6.45-6.62,1.6-2.59,2.41-6.33,2.41-11.21s-1.09-8.4-3.28-10.99c-2.19-2.59-5.07-4.43-8.64-5.52-3.57-1.17-7.88-1.8-12.91-1.91-5.03-.11-9.7-.16-14-.16h-8.97v-29.1h9.3c5.69,0,10.72-.18,15.09-.55,4.38-.36,8.09-1.2,11.16-2.52,3.21-1.38,5.61-3.23,7.22-5.52,1.6-2.3,2.41-5.67,2.41-10.12,0-3.28-.84-5.92-2.52-7.93-1.68-2-3.79-3.59-6.34-4.76-2.84-1.31-6.2-2.19-10.06-2.62-3.87-.44-7.18-.66-9.95-.66-6.86,0-14.29,1.19-22.31,3.55-8.02,2.37-15.79,5.78-23.3,10.23h-4.05v-35.33c5.98-2.41,14.11-4.72,24.39-6.95,10.28-2.22,20.71-3.34,31.28-3.34s19.29.89,27.02,2.68c7.73,1.79,14.11,4.18,19.14,7.17,5.98,3.57,10.43,7.91,13.34,13.02,2.92,5.1,4.38,11.08,4.38,17.94,0,9.04-2.81,17.12-8.42,24.23-5.62,7.11-13.02,11.65-22.21,13.62v1.53c3.72.51,7.66,1.53,11.81,3.06s7.95,3.76,11.38,6.67Z"/>
  <path d="M445.56,502c-10.04,212.02-32.71,407.71-125.45,407.71-38.53,0-16.64-56.45-62.72-56.45-46.59,0-36.74,79.75,62.72,79.75,138.91,0,179.15-212.96,189.07-431h.02c10.04-212.02,32.71-407.71,125.45-407.71,38.53,0,16.64,56.45,62.72,56.45s36.74-79.75-62.72-79.75c-138.91,0-179.15,212.96-189.07,431h-.02Z"/>
</svg>