<?xml version="1.0" encoding="UTF-8"?>
<svg id="Layer_12_copy" data-name="Layer 12 copy" xmlns="http://www.w3.org/2000/svg" viewBox="0 0 1000 1000">
  <path d="M637.94,131.79c-9.61,2.15-15.01,22.17-25.39,25.39-75.53,23.48-61.86-31.11-88.88-76.18h-47.33c-27.01,45.07-13.35,99.66-88.88,76.18-10.38-3.23-15.78-23.25-25.39-25.39-48.48-10.82-152.25-11.95-165.06,50.79,72.53-24.88,44.16,45.75,50.79,50.79,6.68,5.08,45.98-4.81,50.79,0,2.8,2.8-7.21,50.41,25.39,63.48v12.7c-40.9-19.8-98.83,55.04-76.18,76.18,18.39,17.17,107.09-65.6,139.67,0,26.55,1.36,6.89-44.6,12.7-50.79,14.78-15.76,63.96,16.02,76.18,38.09l-114.27,63.48c-56.88,12.54-128.36,79.31-114.27,152.36,27.03,29.22,147.03-124.68,203.15-101.58-38.17,42.28,4.1,52.39-12.7,76.18-28.82,40.81-97.18,66.14-88.88,126.97,46.19,13.33,51.56-23.71,76.18-38.09,26.17-15.28,50.89,21.51,50.79,25.39-.21,7.99-40.83,35.58-50.79,50.79l50.79,50.79-50.79,50.79h148.91l-50.79-50.79,50.79-50.79c-9.95-15.21-50.58-42.8-50.79-50.79-.1-3.89,24.62-40.68,50.79-25.39,24.63,14.38,29.99,51.42,76.18,38.09,8.3-60.83-60.06-86.16-88.88-126.97-16.8-23.79,25.47-33.91-12.7-76.18,56.13-23.1,176.13,130.79,203.15,101.58,14.09-73.05-57.39-139.82-114.27-152.36l-114.27-63.48c12.22-22.07,61.4-53.85,76.18-38.09,5.81,6.19-13.85,52.15,12.7,50.79,32.58-65.6,121.28,17.17,139.67,0,22.65-21.14-35.28-95.98-76.18-76.18v-12.7c32.61-13.08,22.6-60.69,25.39-63.48,4.81-4.81,44.11,5.08,50.79,0,6.62-5.04-21.74-75.67,50.79-50.79-12.81-62.74-116.58-61.61-165.06-50.79ZM400.15,258.76c-26.08-26.08,8.1-86.04,50.79-12.7,9.83,18.92-46.46,17.03-50.79,12.7ZM599.85,258.76c-4.33,4.33-60.62,6.22-50.79-12.7,42.69-73.35,76.87-13.38,50.79,12.7Z"/>
</svg>