<?xml version="1.0" encoding="UTF-8"?><svg id="Layer_1" xmlns="http://www.w3.org/2000/svg" viewBox="0 0 131.08 101.07"><defs><style>.cls-1{fill:none;stroke:#9d3b64;stroke-linecap:square;stroke-linejoin:bevel;stroke-width:1.8px;}.cls-2,.cls-3{fill:#69e16d;}.cls-4,.cls-5{fill:#9d3b64;}.cls-3,.cls-6,.cls-5{fill-rule:evenodd;}.cls-7{fill:#c4534a;}.cls-6,.cls-8{fill:#cc7f29;}.cls-9{fill:#60356c;}</style></defs><rect id="shape022" class="cls-9" x="6.56" y="22.52" width="102.6" height="69.48" rx="12.22" ry="12.22"/><path class="cls-6" d="M75.6,51.49H31.68c-.93,0-1.35-1.15-.66-1.75l7.47-6.49c1.09-.95,2.49-1.47,3.94-1.47h43.93c.93,0,1.35,1.15,.66,1.75l-7.47,6.49c-1.09,.95-2.49,1.47-3.94,1.47Z"/><path class="cls-5" d="M87.38,43.21l-7.47,6.49c-1.31,1.14-2.06,2.79-2.06,4.53v26.77c0,.86,1.01,1.32,1.66,.75l7.47-6.49c1.31-1.14,2.06-2.79,2.06-4.53v-26.77c0-.86-1.01-1.32-1.66-.75Z"/><rect class="cls-7" x="29" y="51.49" width="48.85" height="31.69" rx="3" ry="3"/><path id="shape17" class="cls-3" d="M65.78,9.07l-18.86,20.71,12.09-2.93-16.04,21.26,14.96-3.92-10.38,21.74,22.02-30.67-13.88,3.95,14.64-20.49-12.03,3.5,7.47-13.14Z"/><path id="shape71" class="cls-1" d="M82.7,61.91c3.43,4.98,7.9,7.1,13.41,6.35,4.59-.62,8.31-8.26,15.28-6.94,2.91,.55,5.13,2.03,6.67,4.43"/><path id="shape07" class="cls-3" d="M118.58,74.44l1.05-.92-1.85-2.93,3.63-2.55,2.13,2.77,.99-.8c-2.17-3.84-3.86-6.1-5.09-6.78-.82-.45-2.5-.49-3.79,.41-1.09,.76-1.66,1.93-1.53,3.79,.05,.71,1.54,3.05,4.45,7Z"/><circle id="shape16" class="cls-4" cx="34.15" cy="57.29" r="1.98"/><circle id="shape020" class="cls-2" cx="34.02" cy="62.74" r="1.98"/><circle id="shape02111" class="cls-8" cx="33.98" cy="68.46" r="1.98"/><circle id="shape0221" class="cls-8" cx="58.5" cy="79.47" r="1.8"/><circle id="shape0231" class="cls-8" cx="62.83" cy="79.43" r="1.8"/><circle id="shape0241" class="cls-8" cx="67.15" cy="79.45" r="1.8"/><circle id="shape0161" class="cls-8" cx="71.49" cy="79.42" r="1.8"/></svg>