<?xml version="1.0" encoding="UTF-8"?><svg id="Layer_1" xmlns="http://www.w3.org/2000/svg" viewBox="0 0 131.08 101.07"><defs><style>.cls-1{fill:#69e16d;}.cls-2{fill:#c4534a;}.cls-3{fill:#81376b;fill-rule:evenodd;}.cls-4{fill:#60356c;}.cls-5{fill:#cc7f29;}</style></defs><rect id="shape031" class="cls-4" x="13.9" y="15.79" width="102.6" height="69.48" rx="14.68" ry="14.68"/><path id="shape11" class="cls-3" d="M5.58,50.6l22.34-14.32c34.98-.09,59.97-.15,74.97-.19,4.48,2.75,11.95,7.33,22.4,13.75l-22.72,13.62-75.03-.38s-7.32-4.16-21.96-12.47Z"/><circle id="shape3" class="cls-2" cx="27.92" cy="36.8" r="5.85"/><circle id="shape012" class="cls-1" cx="40.51" cy="36.67" r="5.85"/><circle id="shape021" class="cls-2" cx="53.07" cy="36.53" r="5.85"/><circle id="shape031-2" class="cls-2" cx="65.66" cy="36.67" r="5.85"/><circle id="shape041" class="cls-2" cx="77.94" cy="36.59" r="5.85"/><circle id="shape0112" class="cls-5" cx="90.5" cy="36.59" r="5.85"/><circle id="shape0211" class="cls-2" cx="103.05" cy="36.69" r="5.85"/><circle id="shape051" class="cls-2" cx="27.61" cy="49.88" r="5.85"/><circle id="shape06" class="cls-2" cx="40.2" cy="49.75" r="5.85"/><circle id="shape0111" class="cls-2" cx="52.76" cy="49.62" r="5.85"/><circle id="shape0211-2" class="cls-1" cx="65.36" cy="49.76" r="5.85"/><circle id="shape0311" class="cls-2" cx="77.63" cy="49.68" r="5.85"/><circle id="shape0121" class="cls-2" cx="90.19" cy="49.68" r="5.85"/><circle id="shape022" class="cls-2" cx="102.74" cy="49.78" r="5.85"/><circle id="shape07" class="cls-2" cx="27.7" cy="63.02" r="5.85"/><circle id="shape08" class="cls-2" cx="40.29" cy="62.89" r="5.85"/><circle id="shape013" class="cls-5" cx="52.85" cy="62.76" r="5.85"/><circle id="shape023" class="cls-2" cx="65.45" cy="62.9" r="5.85"/><circle id="shape0311-2" class="cls-2" cx="77.72" cy="62.82" r="5.85"/><circle id="shape014" class="cls-2" cx="90.28" cy="62.82" r="5.85"/><circle id="shape024" class="cls-2" cx="102.83" cy="62.92" r="5.85"/><circle id="shape09" class="cls-2" cx="5.85" cy="50.64" r="5.85"/><circle id="shape010" class="cls-2" cx="16.27" cy="56.87" r="5.85"/><circle id="shape01111" class="cls-5" cx="16.13" cy="43.53" r="5.85"/><circle id="shape0121-2" class="cls-5" cx="125.24" cy="50.24" r="5.85"/><circle id="shape015" class="cls-2" cx="114.49" cy="56.36" r="5.85"/><circle id="shape025" class="cls-1" cx="114.92" cy="43.33" r="5.85"/></svg>