<?xml version="1.0" encoding="UTF-8"?><svg id="Layer_1" xmlns="http://www.w3.org/2000/svg" viewBox="0 0 131.08 101.07"><defs><style>.cls-1{fill:#69e16d;}.cls-1,.cls-2,.cls-3,.cls-4{fill-rule:evenodd;}.cls-2{fill:#cc7f29;}.cls-3{fill:#c4534a;}.cls-5{fill:#60356c;}.cls-4{fill:#9d3b64;}</style></defs><rect id="shape022" class="cls-5" x="14.24" y="15.79" width="102.6" height="69.48" rx="12.22" ry="12.22"/><path id="shape023" class="cls-3" d="M65.36,44.49l12.92,13.87,10.82-11.52,5.03-25.77-5.54,1.91-23.23,21.51Z"/><path id="shape9" class="cls-4" d="M54.18,61.04l-3.69-14.18-1.58,19.4,21.01-3.74c-.42,.27-5.67-.22-15.75-1.48Z"/><path id="shape18" class="cls-4" d="M39.08,76.44v-4.26l10.44-12.16,.95-12.54,3.75,13.81,14.26,1.34-12.92,2.55-12.41,11.2-4.07,.06Z"/><path id="shape19" class="cls-3" d="M53.27,42.52l2.99,16.42,19.16,.25-18.01-18.58-4.14,1.91Z"/><path id="shape20" class="cls-1" d="M56.09,59.4l-.72-6,33.41-30.55,5.54-1.65-1.34,5.09-30.52,32.82-6.37,.29Z"/><path id="shape211" class="cls-3" d="M63.13,43.22l11.71-10.69-1.27-11.33-4.52,.19-9.23,18.96,3.31,2.86Z"/><path id="shape22" class="cls-3" d="M70.9,60.97l6.11-.13,17.5,16.74-18.77-4.58-4.84-12.03Z"/><path id="shape23" class="cls-3" d="M39.39,36.6l3.66-.99,.16-2.23-5.54-.35,3.37-2.58,3.91,.67,2.96-1.91,13.43,2.42-4.71,3.82,2.04,1.08-6.9,3.53-12.38-3.47Z"/><path id="shape24" class="cls-2" d="M46.62,32.83l2.45-1.55,5.85,.94-3.76,1.87c.54,.06-.97-.36-4.54-1.26Z"/></svg>