<?xml version="1.0" encoding="UTF-8"?><svg id="Layer_1" xmlns="http://www.w3.org/2000/svg" viewBox="0 0 131.08 101.07"><defs><style>.cls-1{stroke:#c4534a;stroke-miterlimit:10;stroke-width:2px;}.cls-1,.cls-2,.cls-3{fill:none;}.cls-2{stroke:#ec5454;}.cls-2,.cls-3{stroke-linecap:square;stroke-miterlimit:2;stroke-width:1.98px;}.cls-4{fill:#69e16d;}.cls-4,.cls-5,.cls-6,.cls-7{fill-rule:evenodd;}.cls-5{fill:#cc7f29;}.cls-6{fill:#c4534a;}.cls-8{fill:#60356c;}.cls-3{stroke:#69e16d;}.cls-7{fill:#9d3b64;}</style></defs><rect id="shape012" class="cls-8" x="14.24" y="18.44" width="102.6" height="69.48" rx="12.4" ry="12.4"/><path id="shape9" class="cls-7" d="M42.25,50.44h52.2l-10.98-5.87-31.23,.09-9.99,5.78Z"/><path id="shape013" class="cls-1" d="M53.82,52.91c13.42-13.67,26.5-10.68,39.42,.18"/><path id="shape1" class="cls-2" d="M46.85,50.84c12.31-21.37,14.56-5.16,31.63,2.93"/><path id="shape2" class="cls-3" d="M61.94,50.47c10.87-16.28,20.24-11.73,29.11,0"/><path id="shape8" class="cls-6" d="M29.12,80.3H110.58l-16.04-29.91-52.25,.06s-4.39,9.95-13.17,29.85Z"/><path id="shape10" class="cls-7" d="M32.47,80.24l7.1-9.45,6.97,9.45h-14.08Z"/><path id="shape016" class="cls-7" d="M51.46,80.41l6.81-9.54,7,9.51-13.81,.03Z"/><path id="shape017" class="cls-7" d="M71.95,80.37l7.1-9.45,6.97,9.45h-14.08Z"/><path id="shape018" class="cls-7" d="M92.49,80.32l6.81-9.54,7,9.51-13.81,.03Z"/><path id="shape1111" class="cls-4" d="M58.65,63.5l-12.79-8.34-2.93,6.11s5.24,.74,15.72,2.23Z"/><path id="shape019" class="cls-4" d="M77.91,63.46l12.79-8.34,2.93,6.11s-5.24,.74-15.72,2.23Z"/><path id="shape12" class="cls-5" d="M40.24,30.35c.28-13.57-4.27-17.81-6.5-17.13-3.53,1.07-6.43,6.1-6.54,25.87-.12,19.77-4.6,30.03-9.67,14.56,.03,6.86,1.22,16.15,6.96,16.33,8.66,.27-.15-71.85,15.75-39.62Z"/><path id="shape61" class="cls-5" d="M49.04,50.71h4.14c-.18-4.49-.85-6.73-2-6.71-1.16,.01-1.87,2.25-2.13,6.71Z"/></svg>