<?xml version="1.0" encoding="UTF-8"?><svg id="Layer_1" xmlns="http://www.w3.org/2000/svg" viewBox="0 0 131.08 101.07"><defs><style>.cls-1,.cls-2,.cls-3,.cls-4,.cls-5{fill-rule:evenodd;}.cls-1,.cls-6{stroke:#9d3b64;stroke-width:2px;}.cls-1,.cls-6,.cls-3{fill:none;stroke-miterlimit:10;}.cls-7{fill:#69e16d;}.cls-8,.cls-5{fill:#9d3b64;}.cls-2,.cls-9{fill:#cc7f29;}.cls-3{stroke:#c4534a;stroke-width:3px;}.cls-4{fill:#c4534a;}.cls-10{fill:#60356c;}</style></defs><rect id="shape05" class="cls-10" x="14.24" y="22.75" width="102.6" height="69.48" rx="14.97" ry="14.97"/><g><polygon class="cls-5" points="34.58 64.45 31.15 63.53 29.27 82.45 32.86 83.45 34.58 64.45"/><ellipse class="cls-8" cx="30.23" cy="73.01" rx="6" ry="9.6"/><ellipse class="cls-9" cx="33.84" cy="73.98" rx="6" ry="9.6"/><ellipse class="cls-8" cx="33.84" cy="73.98" rx="2.88" ry="4.61"/></g><path class="cls-4" d="M99.69,67.87l-24.65-6.6c-1.28-.34-2.65-.16-3.79,.5l-13.05,7.53c-1.15,.66-2.51,.84-3.79,.5l-10.49-2.81c-1.28-.34-2.65-.16-3.79,.5l-16.2,9.35c-.77,.45-.62,1.6,.24,1.83l12.16,3.26h-.02l28.98,7.78h.02l12.49,3.33c1.28,.34,2.65,.16,3.79-.5l16.2-9.35c.77-.45,.62-1.6-.24-1.83l-9.82-2.63c-.86-.23-1.01-1.39-.24-1.83l12.45-7.19c.77-.45,.62-1.6-.24-1.83Z"/><g><polygon class="cls-5" points="93.54 79.55 89.68 78.52 87.56 99.81 91.6 100.92 93.54 79.55"/><ellipse class="cls-8" cx="88.64" cy="89.18" rx="6.75" ry="10.8"/><ellipse class="cls-9" cx="92.7" cy="90.27" rx="6.75" ry="10.8"/><ellipse class="cls-8" cx="92.7" cy="90.27" rx="3.24" ry="5.18"/></g><path id="shape10" class="cls-6" d="M76.35,87.09c5.64-8.79,2.92-15.23-2.35-15.33-5.26-.1-7.83,4.79-13.05,4.13-5.22-.66-11.69-5.43-7.81-13.05,3.88-7.62,16.67-.16,17.85-12.61,.43-4.51-10.42-10-11.38-16.4-.81-5.38,2.52-11.33,8.59-12.16"/><path id="shape11" class="cls-3" d="M64.63,78.13V17.31"/><path class="cls-2" d="M73.62,26.33c1.29,.35,2.56-.65,2.52-1.99-.37-14.08-3.79-22.05-11.51-24.08-6.55-1.72-11.21,5.13-11.53,19.01-.02,.91,.6,1.72,1.48,1.96l19.03,5.1Z"/><ellipse id="shape13" class="cls-9" cx="58.59" cy="12.59" rx="3.87" ry="4.52"/><path id="shape14" class="cls-5" d="M56.01,8.14l2.97-.08c4.98,.75,4.41,8.53-.08,9.09l-2.99-.16s.04-2.95,.11-8.85Z"/><ellipse id="shape026" class="cls-7" cx="56.08" cy="12.53" rx="3.87" ry="4.52"/><ellipse id="shape027" class="cls-9" cx="69.88" cy="14.75" rx="4" ry="4.68"/><path id="shape11-2" class="cls-5" d="M67.21,10.16l3.07-.09c5.15,.78,4.55,8.82-.09,9.4l-3.1-.17s.04-3.05,.11-9.14Z"/><ellipse id="shape028" class="cls-7" cx="67.27" cy="14.69" rx="4" ry="4.68"/><path id="shape15" class="cls-1" d="M68.86,45.8c-1.14-1.43-4.6-4.58-6.93-7.2"/><ellipse id="shape16" class="cls-7" cx="75.56" cy="87.49" rx="2.9" ry="2.23"/></svg>