<?xml version="1.0" encoding="UTF-8"?>
<svg id="Layer_9" data-name="Layer 9" xmlns="http://www.w3.org/2000/svg" viewBox="0 0 1000 1000">
  <path d="M473.28,843.21c7.01,0,12.7-5.68,12.7-12.7v-121.23c0-108.52-158.7-213.38-158.7-311.48s91.41-158.7,158.7-158.7v-69.62c0-7.01-5.68-12.7-12.7-12.7h-254.59c-7.01,0-12.7,5.68-12.7,12.7v661.03c0,7.01,5.68,12.7,12.7,12.7h254.59Z"/>
  <path d="M526.72,843.21c-7.01,0-12.7-5.68-12.7-12.7v-121.23c0-108.52,158.7-213.38,158.7-311.48,0-98.1-91.41-158.7-158.7-158.7v-69.62c0-7.01,5.68-12.7,12.7-12.7h254.59c7.01,0,12.7,5.68,12.7,12.7v661.03c0,7.01-5.68,12.7-12.7,12.7h-254.59Z"/>
</svg>